# Blender 4.3.2
# www.blender.org
mtllib pillar.mtl
o Cylinder
v 0.000000 -1.000000 -1.000000
v 0.000000 3.865613 -1.000000
v 0.382683 -1.000000 -0.923880
v 0.382683 3.865613 -0.923880
v 0.707107 -1.000000 -0.707107
v 0.707107 3.865613 -0.707107
v 0.923880 -1.000000 -0.382683
v 0.923880 3.865613 -0.382683
v 1.000000 -1.000000 0.000000
v 1.000000 3.865613 0.000000
v 0.923880 -1.000000 0.382683
v 0.923880 3.865613 0.382683
v 0.707107 -1.000000 0.707107
v 0.707107 3.865613 0.707107
v 0.382683 -1.000000 0.923880
v 0.382683 3.865613 0.923880
v 0.000000 -1.000000 1.000000
v 0.000000 3.865613 1.000000
v -0.382683 -1.000000 0.923880
v -0.382683 3.865613 0.923880
v -0.707107 -1.000000 0.707107
v -0.707107 3.865613 0.707107
v -0.923880 -1.000000 0.382683
v -0.923880 3.865613 0.382683
v -1.000000 -1.000000 0.000000
v -1.000000 3.865613 0.000000
v -0.923880 -1.000000 -0.382683
v -0.923880 3.865613 -0.382683
v -0.707107 -1.000000 -0.707107
v -0.707107 3.865613 -0.707107
v -0.382683 -1.000000 -0.923880
v -0.382683 3.865613 -0.923880
vn -0.0000 -0.0000 -1.0000
vn 0.3827 -0.0000 -0.9239
vn 0.7071 -0.0000 -0.7071
vn 0.9239 -0.0000 -0.3827
vn 1.0000 -0.0000 -0.0000
vn 0.9239 -0.0000 0.3827
vn 0.7071 -0.0000 0.7071
vn 0.3827 -0.0000 0.9239
vn -0.0000 -0.0000 1.0000
vn -0.3827 -0.0000 0.9239
vn -0.7071 -0.0000 0.7071
vn -0.9239 -0.0000 0.3827
vn -1.0000 -0.0000 -0.0000
vn -0.9239 -0.0000 -0.3827
vn -0.7071 -0.0000 -0.7071
vn -0.3827 -0.0000 -0.9239
vt 0.064973 0.000000
vt 0.064973 0.876978
vt 0.000000 0.876978
vt 0.000000 0.000000
vt 1.000000 -0.000000
vt 1.000000 0.876978
vt 0.950272 0.876978
vt 0.950272 -0.000000
vt 0.885299 0.876978
vt 0.885299 -0.000000
vt 0.814973 0.876978
vt 0.814973 -0.000000
vt 0.750000 0.876978
vt 0.750000 -0.000000
vt 0.700272 0.876978
vt 0.700272 -0.000000
vt 0.635299 0.876978
vt 0.635299 0.000000
vt 0.564973 0.876978
vt 0.564973 0.000000
vt 0.500000 0.876978
vt 0.500000 0.000000
vt 0.500000 0.000000
vt 0.500000 0.876978
vt 0.450272 0.876978
vt 0.450272 0.000000
vt 0.385299 0.876978
vt 0.385299 0.000000
vt 0.314973 0.876978
vt 0.314973 0.000000
vt 0.250000 0.876978
vt 0.250000 0.000000
vt 0.250000 0.000000
vt 0.250000 0.876978
vt 0.200272 0.876978
vt 0.200272 0.000000
vt 0.135299 0.876978
vt 0.135299 0.000000
s 1
f 1/1/1 2/2/1 4/3/2 3/4/2
f 3/5/2 4/6/2 6/7/3 5/8/3
f 5/8/3 6/7/3 8/9/4 7/10/4
f 7/10/4 8/9/4 10/11/5 9/12/5
f 9/12/5 10/11/5 12/13/6 11/14/6
f 11/14/6 12/13/6 14/15/7 13/16/7
f 13/16/7 14/15/7 16/17/8 15/18/8
f 15/18/8 16/17/8 18/19/9 17/20/9
f 17/20/9 18/19/9 20/21/10 19/22/10
f 19/23/10 20/24/10 22/25/11 21/26/11
f 21/26/11 22/25/11 24/27/12 23/28/12
f 23/28/12 24/27/12 26/29/13 25/30/13
f 25/30/13 26/29/13 28/31/14 27/32/14
f 27/33/14 28/34/14 30/35/15 29/36/15
f 29/36/15 30/35/15 32/37/16 31/38/16
f 31/38/16 32/37/16 2/2/1 1/1/1
