# Blender 4.3.2
# www.blender.org
mtllib pillar.mtl
o Cylinder
v 0.000000 -1.000000 -1.000000
v 0.000000 3.865613 -1.000000
v 0.382683 -1.000000 -0.923880
v 0.382683 3.865613 -0.923880
v 0.707107 -1.000000 -0.707107
v 0.707107 3.865613 -0.707107
v 0.923880 -1.000000 -0.382683
v 0.923880 3.865613 -0.382683
v 1.000000 -1.000000 0.000000
v 1.000000 3.865613 0.000000
v 0.923880 -1.000000 0.382683
v 0.923880 3.865613 0.382683
v 0.707107 -1.000000 0.707107
v 0.707107 3.865613 0.707107
v 0.382683 -1.000000 0.923880
v 0.382683 3.865613 0.923880
v 0.000000 -1.000000 1.000000
v 0.000000 3.865613 1.000000
v -0.382683 -1.000000 0.923880
v -0.382683 3.865613 0.923880
v -0.707107 -1.000000 0.707107
v -0.707107 3.865613 0.707107
v -0.923880 -1.000000 0.382683
v -0.923880 3.865613 0.382683
v -1.000000 -1.000000 0.000000
v -1.000000 3.865613 0.000000
v -0.923880 -1.000000 -0.382683
v -0.923880 3.865613 -0.382683
v -0.707107 -1.000000 -0.707107
v -0.707107 3.865613 -0.707107
v -0.382683 -1.000000 -0.923880
v -0.382683 3.865613 -0.923880
vn -0.0000 -0.0000 -1.0000
vn 0.3827 -0.0000 -0.9239
vn 0.7071 -0.0000 -0.7071
vn 0.9239 -0.0000 -0.3827
vn 1.0000 -0.0000 -0.0000
vn 0.9239 -0.0000 0.3827
vn 0.7071 -0.0000 0.7071
vn 0.3827 -0.0000 0.9239
vn -0.0000 -0.0000 1.0000
vn -0.3827 -0.0000 0.9239
vn -0.7071 -0.0000 0.7071
vn -0.9239 -0.0000 0.3827
vn -1.0000 -0.0000 -0.0000
vn -0.9239 -0.0000 -0.3827
vn -0.7071 -0.0000 -0.7071
vn -0.3827 -0.0000 -0.9239
vt 0.000057 0.000057
vt 0.320385 0.000057
vt 0.320385 0.062550
vt 0.000057 0.062550
vt 0.320385 0.125042
vt 0.000057 0.125042
vt 0.320385 0.187535
vt 0.000057 0.187535
vt 0.320385 0.250028
vt 0.000057 0.250028
vt 0.320385 0.312521
vt 0.000057 0.312521
vt 0.320385 0.375014
vt 0.000057 0.375014
vt 0.320385 0.437507
vt 0.000057 0.437507
vt 0.320385 0.500000
vt 0.000057 0.500000
vt 0.320385 0.562493
vt 0.000057 0.562493
vt 0.320385 0.624986
vt 0.000057 0.624986
vt 0.320385 0.687479
vt 0.000057 0.687479
vt 0.320385 0.749972
vt 0.000057 0.749972
vt 0.320385 0.812465
vt 0.000057 0.812465
vt 0.320385 0.874958
vt 0.000057 0.874958
vt 0.320385 0.937450
vt 0.000057 0.937450
vt 0.320385 0.999943
vt 0.000057 0.999943
s 1
f 1/1/1 2/2/1 4/3/2 3/4/2
f 3/4/2 4/3/2 6/5/3 5/6/3
f 5/6/3 6/5/3 8/7/4 7/8/4
f 7/8/4 8/7/4 10/9/5 9/10/5
f 9/10/5 10/9/5 12/11/6 11/12/6
f 11/12/6 12/11/6 14/13/7 13/14/7
f 13/14/7 14/13/7 16/15/8 15/16/8
f 15/16/8 16/15/8 18/17/9 17/18/9
f 17/18/9 18/17/9 20/19/10 19/20/10
f 19/20/10 20/19/10 22/21/11 21/22/11
f 21/22/11 22/21/11 24/23/12 23/24/12
f 23/24/12 24/23/12 26/25/13 25/26/13
f 25/26/13 26/25/13 28/27/14 27/28/14
f 27/28/14 28/27/14 30/29/15 29/30/15
f 29/30/15 30/29/15 32/31/16 31/32/16
f 31/32/16 32/31/16 2/33/1 1/34/1
